<mxfile host="app.diagrams.net" modified="2024-02-27T13:34:17.981Z" agent="Mozilla/5.0 (Windows NT 10.0; Win64; x64) AppleWebKit/537.36 (KHTML, like Gecko) Chrome/122.0.0.0 Safari/537.36 Edg/122.0.0.0" etag="2sErYOBOg2MVMYeEYK9z" version="23.1.5" type="onedrive">
  <diagram name="Exercício 1" id="sAPzjSUPdMnOjb63odD4">
    <mxGraphModel grid="1" page="1" gridSize="10" guides="1" tooltips="1" connect="1" arrows="1" fold="1" pageScale="1" pageWidth="827" pageHeight="1169" math="0" shadow="0">
      <root>
        <mxCell id="0" />
        <mxCell id="1" parent="0" />
        <mxCell id="wzz6fWs4iOsxU1JE1mRv-4" value="" style="edgeStyle=orthogonalEdgeStyle;rounded=0;orthogonalLoop=1;jettySize=auto;html=1;" edge="1" parent="1" source="wzz6fWs4iOsxU1JE1mRv-1" target="wzz6fWs4iOsxU1JE1mRv-3">
          <mxGeometry relative="1" as="geometry" />
        </mxCell>
        <mxCell id="wzz6fWs4iOsxU1JE1mRv-1" value="INÍCIO" style="ellipse;whiteSpace=wrap;html=1;" vertex="1" parent="1">
          <mxGeometry x="350" y="80" width="100" height="60" as="geometry" />
        </mxCell>
        <mxCell id="wzz6fWs4iOsxU1JE1mRv-7" value="" style="edgeStyle=orthogonalEdgeStyle;rounded=0;orthogonalLoop=1;jettySize=auto;html=1;" edge="1" parent="1" source="wzz6fWs4iOsxU1JE1mRv-3" target="wzz6fWs4iOsxU1JE1mRv-6">
          <mxGeometry relative="1" as="geometry" />
        </mxCell>
        <mxCell id="wzz6fWs4iOsxU1JE1mRv-3" value="v0, g" style="shape=manualInput;whiteSpace=wrap;html=1;" vertex="1" parent="1">
          <mxGeometry x="345" y="180" width="110" height="60" as="geometry" />
        </mxCell>
        <mxCell id="wzz6fWs4iOsxU1JE1mRv-9" value="" style="edgeStyle=orthogonalEdgeStyle;rounded=0;orthogonalLoop=1;jettySize=auto;html=1;" edge="1" parent="1" source="wzz6fWs4iOsxU1JE1mRv-6" target="wzz6fWs4iOsxU1JE1mRv-8">
          <mxGeometry relative="1" as="geometry" />
        </mxCell>
        <mxCell id="wzz6fWs4iOsxU1JE1mRv-6" value="tempo = (2*v0) / g" style="rounded=0;whiteSpace=wrap;html=1;" vertex="1" parent="1">
          <mxGeometry x="340" y="280" width="120" height="40" as="geometry" />
        </mxCell>
        <mxCell id="5EKHy_RrqzymWOoA1Fu_-2" style="edgeStyle=orthogonalEdgeStyle;rounded=0;orthogonalLoop=1;jettySize=auto;html=1;entryX=0.5;entryY=0;entryDx=0;entryDy=0;" edge="1" parent="1" source="wzz6fWs4iOsxU1JE1mRv-8" target="5EKHy_RrqzymWOoA1Fu_-1">
          <mxGeometry relative="1" as="geometry" />
        </mxCell>
        <mxCell id="wzz6fWs4iOsxU1JE1mRv-8" value="tempo" style="shape=display;whiteSpace=wrap;html=1;" vertex="1" parent="1">
          <mxGeometry x="360" y="360" width="80" height="40" as="geometry" />
        </mxCell>
        <mxCell id="5EKHy_RrqzymWOoA1Fu_-1" value="y = v0 * t - 0.5 * g * t ^ 2" style="whiteSpace=wrap;html=1;" vertex="1" parent="1">
          <mxGeometry x="330" y="440" width="140" height="60" as="geometry" />
        </mxCell>
        <mxCell id="5EKHy_RrqzymWOoA1Fu_-6" value="" style="edgeStyle=orthogonalEdgeStyle;rounded=0;orthogonalLoop=1;jettySize=auto;html=1;" edge="1" parent="1" source="5EKHy_RrqzymWOoA1Fu_-3" target="5EKHy_RrqzymWOoA1Fu_-5">
          <mxGeometry relative="1" as="geometry" />
        </mxCell>
        <mxCell id="5EKHy_RrqzymWOoA1Fu_-3" value="Posição da bola é &lt;b&gt;y&lt;/b&gt;" style="shape=display;whiteSpace=wrap;html=1;" vertex="1" parent="1">
          <mxGeometry x="322" y="545" width="140" height="40" as="geometry" />
        </mxCell>
        <mxCell id="5EKHy_RrqzymWOoA1Fu_-4" style="edgeStyle=orthogonalEdgeStyle;rounded=0;orthogonalLoop=1;jettySize=auto;html=1;entryX=0;entryY=0;entryDx=77.5;entryDy=0;entryPerimeter=0;" edge="1" parent="1" source="5EKHy_RrqzymWOoA1Fu_-1" target="5EKHy_RrqzymWOoA1Fu_-3">
          <mxGeometry relative="1" as="geometry" />
        </mxCell>
        <mxCell id="5EKHy_RrqzymWOoA1Fu_-5" value="FIM" style="ellipse;whiteSpace=wrap;html=1;" vertex="1" parent="1">
          <mxGeometry x="332" y="620" width="120" height="60" as="geometry" />
        </mxCell>
      </root>
    </mxGraphModel>
  </diagram>
</mxfile>
